<svg width="463" height="76" viewBox="0 0 463 76" fill="none" xmlns="http://www.w3.org/2000/svg">
<path d="M77.0671 39.753H94.6995C106.814 39.753 116.11 32.4441 116.11 20.3816C116.11 8.31901 106.814 1.12901 94.6995 1.12901H77.0671V39.753ZM94.6995 9.92339C101.057 9.92339 105.735 13.6075 105.735 20.3816C105.735 27.1556 101.057 30.9586 94.6995 30.9586H87.2627V9.92339H94.6995Z" fill="#17202B"/>
<path d="M123.922 39.753H156.128V30.9586H134.118V24.0657H154.929V15.2713H134.118V9.92339H156.008V1.12901H123.922V39.753Z" fill="#17202B"/>
<path d="M206.702 39.753H216.898V1.12901H202.864L191.888 25.4918H190.869L179.954 1.12901H165.74V39.753H175.935V16.4597H176.775L187.27 39.753H195.547L205.862 16.4597H206.702V39.753Z" fill="#17202B"/>
<path d="M246.251 40.466C258.606 40.466 267.782 32.563 267.782 20.2033H257.406C257.406 27.0368 252.968 31.0774 246.251 31.0774C239.534 31.0774 235.096 27.0368 235.096 20.2033C235.096 13.4293 239.534 9.38859 246.251 9.38859C252.968 9.38859 257.406 13.4293 257.406 20.2033H267.782C267.782 7.84364 258.606 0 246.251 0C233.837 0 224.721 7.84364 224.721 20.2033C224.721 32.563 233.837 40.466 246.251 40.466Z" fill="#17202B"/>
<path d="M302.664 39.753H312.86V1.12901H302.664V15.2119H285.751V1.12901H275.556V39.753H285.751V24.6005H302.664V39.753Z" fill="#17202B"/>
<path d="M318.856 9.92339H332.051V39.753H342.246V9.92339H355.441V1.12901H318.856V9.92339Z" fill="#17202B"/>
<path d="M353.346 37.5544V39.753H363.602L366.181 33.4543H383.933L386.512 39.753H397.067V37.5544L381.114 1.12901H369L353.346 37.5544ZM374.577 12.7756H375.477L380.335 24.6599H369.779L374.577 12.7756Z" fill="#17202B"/>
<path d="M435.872 23.6497H439.171L451.645 39.753H462.98V37.5544L448.587 20.1439V18.7178L461.721 3.3276V1.12901H451.045L439.171 15.925H435.872V1.12901H425.676V15.925H422.318L410.503 1.12901H399.828V3.3276L412.962 18.7178V20.1439L398.568 37.5544V39.753H409.903L422.318 23.6497H425.676V39.753H435.872V23.6497Z" fill="#17202B"/>
<rect x="76.7668" y="46.2893" width="386.233" height="29.7107" fill="#EB1B35"/>
<path d="M361.026 72.4346H368.079V51.6371H347.55V72.4346H354.603V58.1259H361.026V72.4346Z" fill="white"/>
<path d="M372.233 72.4346C373.408 72.5594 374.416 72.7258 375.633 72.7258C379.58 72.7258 381.763 69.107 381.889 64.282L382.057 58.1259H387.178V72.4346H394.231V51.6371H375.591L375.172 63.8244C375.088 65.5714 374.29 65.9874 373.324 65.9874C372.989 65.9874 372.485 65.9458 372.233 65.9042V72.4346Z" fill="white"/>
<path d="M421.606 72.9337C428.029 72.9337 432.731 68.6911 432.731 62.0358C432.731 55.3806 428.029 51.1379 421.606 51.1379C416.232 51.1379 412.076 54.1328 410.9 58.9994H407.08V51.6371H400.027V72.4346H407.08V64.6563H410.816C411.866 69.7725 416.064 72.9337 421.606 72.9337ZM421.606 57.71C423.999 57.71 425.594 59.3322 425.594 62.0358C425.594 64.7395 423.999 66.3617 421.606 66.3617C419.213 66.3617 417.617 64.7395 417.617 62.0358C417.617 59.3322 419.213 57.71 421.606 57.71Z" fill="white"/>
<path d="M451.777 64.1156C451.105 65.5298 449.636 66.3617 447.747 66.3617C445.06 66.3617 443.296 64.7395 443.296 62.0358C443.296 59.3322 445.06 57.71 447.747 57.71C449.636 57.71 451.105 58.5419 451.777 59.9561H459.166V58.625C458.074 54.6319 453.288 51.1379 447.747 51.1379C441.071 51.1379 436.16 55.3806 436.16 62.0358C436.16 68.6911 441.071 72.9337 447.747 72.9337C453.54 72.9337 458.074 69.3982 459.166 65.4466V64.1156H451.777Z" fill="white"/>
<path d="M67.1714 1.12881H2.47009L34.8207 65.7233L67.1714 1.12881Z" fill="#17202B"/>
<path d="M0 11.4053V75.9998H32.5976L0 11.4053Z" fill="#EB1B35"/>
<path d="M69.6406 75.9998V11.4053L37.043 75.9998H69.6406Z" fill="#EB1B35"/>
</svg>
